<svg id="Layer_1" data-name="Layer 1" xmlns="http://www.w3.org/2000/svg" viewBox="0 0 344.04 72.73"><defs><style>.cls-1{fill:#3c3c3b;}.cls-2{fill:#bf0000;}</style></defs><polygon class="cls-1" points="50.96 65.36 42.63 65.64 42.63 51.95 50.96 51.66 50.96 65.36"/><polygon class="cls-1" points="50.96 25 42.63 24.72 42.63 11.02 50.96 11.31 50.96 25"/><path class="cls-2" d="M40,52,34.4,52a13.65,13.65,0,0,1,0-27.29l5.58,0V11H34.4a27.31,27.31,0,0,0,0,54.62H40Z"/><path class="cls-1" d="M86.51,14.47a4.8,4.8,0,0,0-4.19,2.2,10.61,10.61,0,0,0-1.5,6.06q0,8,6.11,8a12.26,12.26,0,0,0,3.58-.52A35.48,35.48,0,0,0,94,29v6.36a19.45,19.45,0,0,1-7.89,1.54q-6.3,0-9.66-3.66T73.09,22.69a16.76,16.76,0,0,1,1.63-7.59,11.54,11.54,0,0,1,4.68-5A14.09,14.09,0,0,1,86.59,8.3a19.8,19.8,0,0,1,8.63,2l-2.31,5.92A26.25,26.25,0,0,0,89.83,15,10.84,10.84,0,0,0,86.51,14.47Z"/><path class="cls-1" d="M123,22.58q0,7-3.45,10.68t-10.09,3.66q-6.56,0-10-3.68T95.9,22.54q0-6.94,3.48-10.62t10.1-3.66q6.64,0,10.07,3.64T123,22.58Zm-19.16,0q0,8.07,5.62,8.07a4.83,4.83,0,0,0,4.24-2c.92-1.31,1.38-3.34,1.38-6.11s-.47-4.83-1.4-6.16a4.78,4.78,0,0,0-4.18-2Q103.82,14.43,103.82,22.58Z"/><path class="cls-1" d="M145.71,17.55A9.32,9.32,0,0,1,143,24.76c-1.83,1.69-4.44,2.54-7.81,2.54H133v9.24h-7.52V8.7h9.64q5.26,0,7.92,2.3A8.23,8.23,0,0,1,145.71,17.55ZM133,21.17h1.37a3.78,3.78,0,0,0,2.7-1,3.49,3.49,0,0,0,1-2.63c0-1.88-1-2.82-3.13-2.82H133Z"/><path class="cls-1" d="M158,19l4.8-10.32h8.15l-9.16,17V36.54h-7.58V25.89L145,8.7h8.19Z"/><path class="cls-1" d="M203.66,36.54h-8.89L192.1,24.41q-.18-.77-.6-3c-.27-1.51-.47-2.77-.6-3.79-.1.83-.26,1.85-.49,3.08s-.46,2.35-.68,3.38-1.14,5.19-2.77,12.49h-8.89L171.17,8.7h7.26l3,14q1,4.63,1.41,7.37c.16-1.29.46-3.05.88-5.27s.82-4.06,1.19-5.52L187.4,8.7h7l2.38,10.53c.41,1.69.82,3.63,1.24,5.84s.7,3.86.83,4.95c.17-1.4.62-3.85,1.36-7.33l3.08-14h7.26Z"/><path class="cls-1" d="M219.77,26.41V36.54h-7.53V8.7h9.13q11.34,0,11.35,8.22,0,4.84-4.73,7.49l8.12,12.13h-8.54l-5.9-10.13Zm0-5.66h1.41c2.62,0,3.94-1.16,3.94-3.48q0-2.88-3.87-2.88h-1.48Z"/><path class="cls-1" d="M237.74,36.54V8.7h7.56V36.54Z"/><path class="cls-1" d="M262.24,36.54h-7.53V14.85h-6.79V8.7H269v6.15h-6.78Z"/><path class="cls-1" d="M271.63,36.54V8.7h7.56V36.54Z"/><path class="cls-1" d="M310,36.54h-9.87L290,16.92h-.18c.24,3.09.37,5.44.37,7.07V36.54h-6.67V8.7h9.83L303.49,28h.11c-.18-2.8-.26-5.05-.26-6.76V8.7H310Z"/><path class="cls-1" d="M325.4,20.24h12v15a33,33,0,0,1-10.76,1.68q-6.44,0-10-3.73T313.2,22.54q0-6.73,3.84-10.49T327.82,8.3a23.84,23.84,0,0,1,5,.49,20.83,20.83,0,0,1,4.07,1.26L334.47,16a14.74,14.74,0,0,0-6.61-1.48,6.25,6.25,0,0,0-5.09,2.14,9.27,9.27,0,0,0-1.8,6.12,9.42,9.42,0,0,0,1.62,5.95,5.64,5.64,0,0,0,4.7,2.05,14.14,14.14,0,0,0,3.08-.32V26.05h-5Z"/><path class="cls-2" d="M77.63,65.64h-3V40H89V42.6H77.63V52H88.28v2.66H77.63Z"/><path class="cls-2" d="M114.81,52.76q0,6.16-3.12,9.7T103,66q-5.67,0-8.76-3.48t-3.09-9.79q0-6.28,3.1-9.73t8.79-3.46a10.94,10.94,0,0,1,8.65,3.52Q114.81,46.57,114.81,52.76Zm-20.48,0q0,5.22,2.22,7.92a7.89,7.89,0,0,0,6.46,2.7,7.81,7.81,0,0,0,6.45-2.69c1.46-1.8,2.18-4.44,2.18-7.93s-.72-6.08-2.17-7.87a7.8,7.8,0,0,0-6.42-2.68,7.93,7.93,0,0,0-6.5,2.7Q94.33,47.61,94.33,52.76Z"/><path class="cls-2" d="M121.51,55V65.64h-3V40h7q4.73,0,7,1.81a6.57,6.57,0,0,1,2.26,5.45q0,5.09-5.17,6.89l7,11.54h-3.54L126.87,55Zm0-2.57h4.1a7.09,7.09,0,0,0,4.64-1.26,4.67,4.67,0,0,0,1.47-3.77,4.29,4.29,0,0,0-1.5-3.67,8.14,8.14,0,0,0-4.83-1.13h-3.88Z"/><path class="cls-2" d="M150.81,55V65.64h-3V40h7.05q4.73,0,7,1.81a6.57,6.57,0,0,1,2.26,5.45q0,5.09-5.17,6.89l7,11.54H162.4L156.17,55Zm0-2.57h4.1a7.07,7.07,0,0,0,4.64-1.26A4.67,4.67,0,0,0,161,47.36a4.29,4.29,0,0,0-1.5-3.67,8.13,8.13,0,0,0-4.82-1.13h-3.89Z"/><path class="cls-2" d="M183.29,65.64H169V40h14.33V42.6H172v8.28H182.6v2.64H172V63h11.34Z"/><path class="cls-2" d="M198.87,42.25a8.42,8.42,0,0,0-6.69,2.82,11.41,11.41,0,0,0-2.45,7.73q0,5,2.36,7.79a8.4,8.4,0,0,0,6.74,2.75,23.18,23.18,0,0,0,6.14-1V65a18.83,18.83,0,0,1-6.59,1q-5.69,0-8.77-3.45t-3.08-9.79a15.31,15.31,0,0,1,1.49-7,10.73,10.73,0,0,1,4.28-4.61,13.07,13.07,0,0,1,6.6-1.61A16,16,0,0,1,206,41.05l-1.26,2.57A13.7,13.7,0,0,0,198.87,42.25Z"/><path class="cls-2" d="M212.52,55V65.64h-3V40h7.05q4.72,0,7,1.81a6.57,6.57,0,0,1,2.26,5.45q0,5.09-5.17,6.89l7,11.54h-3.53L217.88,55Zm0-2.57h4.1a7.07,7.07,0,0,0,4.64-1.26,4.67,4.67,0,0,0,1.47-3.77,4.29,4.29,0,0,0-1.5-3.67,8.13,8.13,0,0,0-4.82-1.13h-3.89Z"/><path class="cls-2" d="M249.36,40V56.57a9.05,9.05,0,0,1-2.66,6.91A10.16,10.16,0,0,1,239.41,66c-3.1,0-5.49-.85-7.18-2.53a9.38,9.38,0,0,1-2.54-7V40h3V56.72a6.58,6.58,0,0,0,1.75,4.93,7.11,7.11,0,0,0,5.17,1.73,6.85,6.85,0,0,0,5-1.73,6.68,6.68,0,0,0,1.76-5V40Z"/><path class="cls-2" d="M254.36,65.64V40h3V65.64Z"/><path class="cls-2" d="M271.55,65.64h-3v-23h-8.14V40h19.27V42.6h-8.14Z"/><path class="cls-2" d="M297,65.64H282.69V40H297V42.6H285.68v8.28h10.65v2.64H285.68V63H297Z"/><path class="cls-2" d="M304.41,55V65.64h-3V40h7.05q4.72,0,7,1.81a6.54,6.54,0,0,1,2.26,5.45q0,5.09-5.16,6.89l7,11.54H316L309.77,55Zm0-2.57h4.09a7,7,0,0,0,4.64-1.26,4.64,4.64,0,0,0,1.48-3.77,4.29,4.29,0,0,0-1.5-3.67,8.16,8.16,0,0,0-4.83-1.13h-3.88Z"/><path class="cls-2" d="M337.6,58.81a6.31,6.31,0,0,1-2.46,5.29,10.71,10.71,0,0,1-6.68,1.9,16.79,16.79,0,0,1-7-1.18V61.94A19,19,0,0,0,324.87,63a17.94,17.94,0,0,0,3.69.39,7.39,7.39,0,0,0,4.5-1.14,3.69,3.69,0,0,0,1.51-3.15A4,4,0,0,0,334,56.9a5,5,0,0,0-1.79-1.57,25.39,25.39,0,0,0-3.83-1.64,12.12,12.12,0,0,1-5.12-3,6.69,6.69,0,0,1-1.54-4.59A5.71,5.71,0,0,1,324,41.33a9.3,9.3,0,0,1,5.91-1.75A17.57,17.57,0,0,1,337,41l-.93,2.6a16,16,0,0,0-6.19-1.33,6,6,0,0,0-3.71,1,3.36,3.36,0,0,0-1.34,2.83,4.33,4.33,0,0,0,.5,2.19,4.58,4.58,0,0,0,1.66,1.56,20,20,0,0,0,3.57,1.57,14.34,14.34,0,0,1,5.57,3.1A6.1,6.1,0,0,1,337.6,58.81Z"/></svg>