<?xml version="1.0" encoding="UTF-8" standalone="no"?>
<svg
   xmlns:dc="http://purl.org/dc/elements/1.1/"
   xmlns:cc="http://creativecommons.org/ns#"
   xmlns:rdf="http://www.w3.org/1999/02/22-rdf-syntax-ns#"
   xmlns:svg="http://www.w3.org/2000/svg"
   xmlns="http://www.w3.org/2000/svg"
   viewBox="0 0 386.66666 108"
   height="108"
   width="386.66666"
   xml:space="preserve"
   id="svg2"
   version="1.1"><metadata
     id="metadata8"><rdf:RDF><cc:Work
         rdf:about=""><dc:format>image/svg+xml</dc:format><dc:type
           rdf:resource="http://purl.org/dc/dcmitype/StillImage" /></cc:Work></rdf:RDF></metadata><defs
     id="defs6" /><g
     transform="matrix(1.3333333,0,0,-1.3333333,0,108)"
     id="g10"><g
       transform="scale(0.1)"
       id="g12"><path
         id="path14"
         style="fill:#54ba4c;fill-opacity:1;fill-rule:evenodd;stroke:none"
         d="M 472.109,96.6797 C 260.781,142.5 143.398,202.699 120,277.148 96.25,351.25 167.27,425.391 333.121,499.57 111.051,421.52 2.76953,340.699 8.32031,257.148 14.1406,173.871 132.969,106.719 364.801,55.6992 523.16,24.1406 701.84,7.37891 900.859,5.42969 1100.2,3.51953 1298.52,15.1992 1495.9,40.5898 c 197.34,25.6602 372.77,63.5512 526.29,113.6292 41.29,13.672 78.67,27.812 112.15,42.422 -1.61,-0.621 -3.25,-1.129 -4.85,-1.481 C 1975.98,144.801 1800.55,106.91 1603.2,81.5586 1405.51,56.1719 1207.15,44.3008 1008.16,45.9414 809.141,47.8906 630.469,64.8008 472.109,96.6797" /><path
         id="path16"
         style="fill:#6bc5b3;fill-opacity:1;fill-rule:evenodd;stroke:none"
         d="m 2405.55,740.98 c -216.88,43.239 -461.92,66.168 -735.04,68.75 -272.78,2.61 -544.49,-13.48 -815.041,-48.281 C 584.648,726.641 344.18,674.961 134.141,606.371 85.3516,589.77 40.6602,573.012 0,556.09 c 8.75,3.289 17.7305,6.371 26.8398,9.301 C 236.91,633.98 477.34,685.859 748.199,720.98 c 270.511,34.801 542.351,50.86 815.511,48.282 272.77,-2.582 517.66,-25.551 734.53,-68.793 292.97,-63.707 453.91,-147.457 482.85,-251.168 29.26,-103.711 -74.64,-206.801 -311.68,-309.223 293.64,106.293 434.73,215.902 423.36,328.711 -11.36,112.852 -173.79,203.551 -487.22,272.191" /><path
         id="path18"
         style="fill:#2c7845;fill-opacity:1;fill-rule:nonzero;stroke:none"
         d="m 762.699,369.801 c -6.57,-2.61 -11.019,-5.231 -13.289,-7.813 -3.551,-4.179 -5.308,-10.859 -5.308,-20 V 265.43 c -21.872,-6.481 -44.532,-11.84 -67.973,-16.09 -23.359,-4.262 -45.578,-6.41 -66.719,-6.41 -51.68,0 -94.488,13.359 -128.43,40.16 -38.558,30.39 -57.82,73.898 -57.82,130.461 0,51.57 17.43,93.519 52.352,125.937 36.636,33.633 85.66,50.473 147.027,50.473 41.871,0 83.359,-8.051 124.531,-24.063 L 734.73,506.52 h -11.718 c 0.308,2.582 0.468,4.73 0.468,6.41 0,3.949 -0.429,8.441 -1.25,13.441 -0.75,5.078 -1.96,10.078 -3.601,15 -14.367,9.758 -30.309,17.258 -47.809,22.5 -17.5,5.188 -35.55,7.809 -54.058,7.809 -45.121,0 -80.742,-14.84 -106.883,-44.532 -24.18,-27.418 -36.25,-62.187 -36.25,-104.378 0,-48.981 15.199,-88.36 45.633,-118.122 29.058,-28.359 65.468,-42.5 109.218,-42.5 15.309,0 31.29,2.231 47.969,6.723 5.621,1.328 12.653,3.789 21.09,7.34 0.621,2.269 1.25,4.84 1.871,7.66 0.711,2.809 1.102,4.68 1.102,5.617 v 58.282 c 0,6.25 -4.922,11.101 -14.692,14.531 -9.8,3.437 -20.742,5.16 -32.808,5.16 -4.301,0 -7.422,-0.16 -9.383,-0.473 v 14.692 h 115.16 z m 204.492,97.66 c -1.992,-8.551 -3.281,-17.262 -3.91,-26.09 -0.621,-8.75 -0.941,-18.25 -0.941,-28.441 -2.61,-0.942 -5.391,-0.942 -8.281,0 -4.61,5.621 -8.399,9.73 -11.399,12.34 -6.801,5.82 -14.609,8.75 -23.441,8.75 -7.5,0 -15.59,-3.43 -24.219,-10.309 -8.672,-6.801 -14.488,-14.449 -17.5,-22.973 V 274.34 c 0,-5.238 4.301,-8.828 12.969,-10.789 8.75,-1.992 17.812,-2.961 27.191,-2.961 3.629,0 5.781,0 6.399,0 0.32,0 0.632,0 0.941,0 V 249.34 H 796.25 v 11.25 c 8.75,0 15.23,0.148 19.531,0.461 13.129,1.648 19.688,5.789 19.688,12.347 V 436.52 c 0,2.582 -2.457,4.378 -7.348,5.32 -4.922,1.012 -10.461,1.558 -16.711,1.558 -3.68,0 -7.109,0 -10.32,0 -0.93,0 -2.418,-0.16 -4.371,-0.468 l -0.469,12.191 c 24.77,2.891 50.551,9.609 77.34,20.149 l 3.91,-5 v -48.43 c 7.891,12.07 14.609,21.012 20.16,26.871 17.262,18.008 35.231,27.027 53.899,27.027 6.14,0 11.332,-2.769 15.632,-8.277 z" /><path
         id="path20"
         style="fill:#2c7845;fill-opacity:1;fill-rule:nonzero;stroke:none"
         d="m 1115.47,477.148 c 24.26,-2.929 44.06,-13.046 59.37,-30.308 14.07,-15.75 23.99,-36.68 29.85,-62.82 l -59.22,-20.93 h -106.41 c 0,-21.57 5.55,-41.531 16.72,-59.852 12.7,-20.937 28.52,-32.187 47.5,-33.75 2.27,-0.429 4.57,-0.617 6.88,-0.617 1.95,0 4.1,0 6.4,0 12.7,0 24.26,1.438 34.69,4.367 10.51,3.012 22.58,7.813 36.25,14.383 l 2.97,-3.91 c -4.61,-13.441 -13.71,-23.75 -27.35,-30.941 -12.1,-6.25 -26.64,-9.372 -43.59,-9.372 -36.37,0 -65.78,9.141 -88.28,27.5 -25.86,20.942 -38.75,50.981 -38.75,90.153 0,30.398 10.2,57.539 30.62,81.41 20.4,23.828 46.14,35.777 77.19,35.777 1.64,0 3.79,-0.117 6.41,-0.308 2.58,-0.231 5.51,-0.469 8.75,-0.782 z m -75.31,-95.468 h 118.43 c 0.39,2.89 0.63,5 0.63,6.25 0,17.379 -4.45,33.281 -13.28,47.66 -10.12,16.25 -22.74,24.371 -37.82,24.371 -25.42,0 -43.71,-7.973 -54.84,-23.91 -8.75,-12.731 -13.12,-30.852 -13.12,-54.371 z" /><path
         id="path22"
         style="fill:#2c7845;fill-opacity:1;fill-rule:nonzero;stroke:none"
         d="m 1358.55,477.148 c 24.26,-2.929 44.07,-13.046 59.38,-30.308 14.06,-15.75 23.98,-36.68 29.84,-62.82 l -59.22,-20.93 h -106.4 c 0,-21.57 5.55,-41.531 16.72,-59.852 12.69,-20.937 28.51,-32.187 47.5,-33.75 2.26,-0.429 4.57,-0.617 6.87,-0.617 1.96,0 4.1,0 6.41,0 12.69,0 24.26,1.438 34.69,4.367 10.5,3.012 22.57,7.813 36.25,14.383 l 2.96,-3.91 c -4.6,-13.441 -13.71,-23.75 -27.34,-30.941 -12.11,-6.25 -26.64,-9.372 -43.59,-9.372 -36.37,0 -65.78,9.141 -88.28,27.5 -25.86,20.942 -38.75,50.981 -38.75,90.153 0,30.398 10.19,57.539 30.62,81.41 20.39,23.828 46.13,35.777 77.19,35.777 1.64,0 3.79,-0.117 6.4,-0.308 2.58,-0.231 5.51,-0.469 8.75,-0.782 z m -75.31,-95.468 h 118.44 c 0.39,2.89 0.62,5 0.62,6.25 0,17.379 -4.45,33.281 -13.28,47.66 -10.11,16.25 -22.73,24.371 -37.81,24.371 -25.43,0 -43.71,-7.973 -54.84,-23.91 -8.75,-12.731 -13.13,-30.852 -13.13,-54.371 z" /><path
         id="path24"
         style="fill:#2c7845;fill-opacity:1;fill-rule:nonzero;stroke:none"
         d="m 1748.2,260.59 v -11.25 h -79.37 v 153.43 c 0,13.011 -5.59,23.679 -16.72,32.031 -11.06,8.32 -23.75,12.5 -38.13,12.5 -14.68,0 -28.2,-4.449 -40.46,-13.281 -12.19,-8.75 -18.29,-20.149 -18.29,-34.219 V 279.18 c 0,-8.129 3.21,-13.52 9.69,-16.09 3.95,-1.68 10.98,-2.5 21.1,-2.5 3.63,0 6.4,0 8.28,0 v -11.25 h -119.07 v 11.25 c 8.83,0.308 15.39,0.969 19.69,2.031 13.01,2.891 19.53,8.117 19.53,15.617 v 151.883 c 0,4.879 -2.46,8.508 -7.34,10.93 -4.92,2.5 -10.94,3.75 -18.13,3.75 -5.23,0 -10.11,-0.461 -14.68,-1.403 v 12.653 c 26.44,3.949 52.07,10.359 76.87,19.219 l 4.06,-5 v -37.18 c 9.77,9.762 17.74,16.949 23.91,21.558 18.95,14.372 36.13,21.563 51.56,21.563 20.82,0 38.75,-5.082 53.75,-15.16 17.07,-11.481 25.63,-26.52 25.63,-45.153 v -140.16 c 0,-4.918 3.01,-8.668 9.06,-11.25 6.02,-2.609 15.7,-3.898 29.06,-3.898 z" /><path
         id="path26"
         style="fill:#2c7845;fill-opacity:1;fill-rule:nonzero;stroke:none"
         d="m 1961.48,583.551 c 20,0 38.17,-6.563 54.54,-19.68 18.51,-15 27.81,-33.75 27.81,-56.25 0,-29.812 -13.09,-54.18 -39.22,-73.133 -23.44,-16.988 -50.55,-25.468 -81.25,-25.468 -3.67,0 -8.36,0.468 -14.06,1.41 -5.63,1.019 -8.68,1.558 -9.07,1.558 -3.55,5.942 -4.84,11.332 -3.9,16.25 1.64,-0.308 4.26,-0.699 7.81,-1.09 3.63,-0.308 7.07,-0.468 10.31,-0.468 6.25,0 10.82,0 13.75,0 18.64,0 34.89,6.441 48.75,19.371 13.95,12.898 20.94,29.687 20.94,50.32 0,20.188 -7.89,37.34 -23.59,51.399 -15.75,14.07 -37,21.101 -63.75,21.101 -8.75,0 -16.17,-0.781 -22.19,-2.351 -6.06,-1.481 -12.19,-4.141 -18.44,-7.969 V 281.68 c 0,-9.489 7.5,-15.391 22.5,-17.66 6.56,-0.93 14.1,-1.399 22.66,-1.399 V 249.34 H 1776.8 v 13.281 c 5.93,-0.742 10.97,-1.101 15.15,-1.101 9.14,0 16.45,1.14 21.88,3.441 5.39,2.269 8.12,6.719 8.12,13.277 v 272.5 c 0,7.813 -4.53,13.051 -13.59,15.782 -8.98,2.82 -19.49,4.218 -31.56,4.218 v 12.813 z" /><path
         id="path28"
         style="fill:#2c7845;fill-opacity:1;fill-rule:nonzero;stroke:none"
         d="m 2198.83,477.148 c 24.26,-2.929 44.06,-13.046 59.37,-30.308 14.07,-15.75 23.99,-36.68 29.85,-62.82 l -59.22,-20.93 h -106.41 c 0,-21.57 5.55,-41.531 16.72,-59.852 12.7,-20.937 28.52,-32.187 47.5,-33.75 2.27,-0.429 4.57,-0.617 6.88,-0.617 1.95,0 4.1,0 6.4,0 12.7,0 24.26,1.438 34.69,4.367 10.51,3.012 22.58,7.813 36.25,14.383 l 2.97,-3.91 c -4.61,-13.441 -13.71,-23.75 -27.35,-30.941 -12.1,-6.25 -26.64,-9.372 -43.59,-9.372 -36.37,0 -65.78,9.141 -88.28,27.5 -25.86,20.942 -38.75,50.981 -38.75,90.153 0,30.398 10.19,57.539 30.62,81.41 20.4,23.828 46.14,35.777 77.19,35.777 1.64,0 3.79,-0.117 6.41,-0.308 2.58,-0.231 5.51,-0.469 8.75,-0.782 z m -75.31,-95.468 h 118.43 c 0.39,2.89 0.63,5 0.63,6.25 0,17.379 -4.46,33.281 -13.28,47.66 -10.12,16.25 -22.74,24.371 -37.82,24.371 -25.43,0 -43.71,-7.973 -54.84,-23.91 -8.75,-12.731 -13.12,-30.852 -13.12,-54.371 z" /><path
         id="path30"
         style="fill:#2c7845;fill-opacity:1;fill-rule:nonzero;stroke:none"
         d="m 2393.48,459.961 h 62.18 l -4.84,-22.973 h -57.34 v -136.25 c 0,-7.808 2.26,-13.707 6.87,-17.648 4.57,-3.871 10.47,-5.789 17.66,-5.789 10.7,0 20.35,2.109 28.9,6.41 l 7.82,-7.5 c -8.56,-8.75 -17.03,-17.422 -25.47,-25.941 -3.67,-2.571 -12.31,-3.899 -25.94,-3.899 -13.44,0 -24.77,3.117 -33.91,9.367 -10.74,7.5 -16.09,18.133 -16.09,31.883 v 149.367 h -32.81 v 7.352 l 32.81,15.621 v 68.75 l 40.16,20 z" /></g></g></svg>