<?xml version="1.0" encoding="UTF-8"?><svg id="Layer_1" xmlns="http://www.w3.org/2000/svg" viewBox="0 0 40 40"><path d="M2.91,39c.09-.88,.16-1.75,.26-2.63,.29-2.56,.58-5.11,.87-7.67,.29-2.54,.58-5.09,.87-7.63,.29-2.53,.58-5.06,.87-7.59,.12-1.05,.24-2.1,.37-3.18h6.13c0-.62-.02-1.21,0-1.8,.15-3.63,2.6-6.55,6.14-7.33,4.27-.94,8.63,2.09,9.21,6.43,.1,.73,.07,1.48,.1,2.23,0,.15,0,.3,0,.48h6.11c.1,.84,.19,1.65,.29,2.46,.32,2.79,.64,5.59,.96,8.38,.29,2.53,.57,5.06,.86,7.59,.29,2.54,.59,5.09,.87,7.63,.1,.88,.17,1.75,.26,2.63H2.91Zm32.48-1.56c-.97-8.53-1.94-17.03-2.91-25.54h-4.74c0,.54-.01,1.06,0,1.57,0,.1,.11,.22,.19,.29,.7,.63,.76,1.64,.13,2.29-.61,.62-1.6,.62-2.2,0-.63-.65-.57-1.66,.13-2.28,.08-.07,.19-.17,.19-.25,.02-.54,0-1.08,0-1.62H13.81c0,.55,0,1.08,0,1.6,0,.09,.1,.19,.18,.26,.71,.63,.78,1.63,.15,2.28-.61,.63-1.62,.63-2.23-.01-.61-.65-.55-1.64,.14-2.26,.08-.07,.2-.17,.2-.25,.02-.54,0-1.08,0-1.62H7.52c-.97,8.52-1.94,17.02-2.91,25.54h30.78ZM26.2,10.29c0-.48,0-.95,0-1.41-.02-3.95-3.28-6.81-7.18-6.21-3.38,.52-5.72,3.54-5.15,7.62h12.34Z"/></svg>