<?xml version="1.0" encoding="utf-8"?>
<!-- Generator: Adobe Illustrator 26.2.1, SVG Export Plug-In . SVG Version: 6.00 Build 0)  -->
<svg version="1.1" id="Layer_1" xmlns:serif="http://www.serif.com/"
	 xmlns="http://www.w3.org/2000/svg" xmlns:xlink="http://www.w3.org/1999/xlink" x="0px" y="0px" viewBox="0 0 1000 1000"
	 style="enable-background:new 0 0 1000 1000;" xml:space="preserve">
<style type="text/css">
	.st0{fill-rule:evenodd;clip-rule:evenodd;fill:#767676;}
</style>
<path class="st0" d="M500,0c276,0,500,224,500,500s-224,500-500,500S0,776,0,500S224,0,500,0z M343.7,781V390.5H213.9V781H343.7z
	 M811.7,781V557.1c0-119.9-64-175.7-149.4-175.7c-68.9,0-99.7,37.9-117,64.5v-55.3H415.5c1.7,36.6,0,390.5,0,390.5h129.8V562.9
	c0-11.7,0.8-23.3,4.3-31.7c9.4-23.3,30.7-47.5,66.6-47.5c46.9,0,65.7,35.8,65.7,88.3V781L811.7,781L811.7,781z M279.6,202.2
	c-44.4,0-73.4,29.2-73.4,67.5c0,37.5,28.1,67.5,71.7,67.5h0.8c45.3,0,73.4-30,73.4-67.5C351.4,231.4,324,202.2,279.6,202.2
	L279.6,202.2z"/>
</svg>
