<?xml version="1.0" encoding="utf-8"?>
<!-- Generator: Adobe Illustrator 26.2.1, SVG Export Plug-In . SVG Version: 6.00 Build 0)  -->
<svg version="1.1" id="Layer_1" xmlns:serif="http://www.serif.com/"
	 xmlns="http://www.w3.org/2000/svg" xmlns:xlink="http://www.w3.org/1999/xlink" x="0px" y="0px" viewBox="0 0 1000 1000"
	 style="enable-background:new 0 0 1000 1000;" xml:space="preserve">
<style type="text/css">
	.st0{fill-rule:evenodd;clip-rule:evenodd;fill:#767676;}
</style>
<path class="st0" d="M500,0c276,0,500,224,500,500s-224,500-500,500S0,776,0,500S224,0,500,0z M799.4,349.6
	c-7.2-26.9-28.4-48.1-55.3-55.3C695.4,281.2,500,281.2,500,281.2s-195.4,0-244.2,13.1c-26.9,7.2-48.1,28.4-55.3,55.3
	C187.5,398.3,187.5,500,187.5,500s0,101.7,13.1,150.4c7.2,26.9,28.4,48.1,55.3,55.3c48.7,13.1,244.2,13.1,244.2,13.1
	s195.4,0,244.2-13.1c26.9-7.2,48.1-28.4,55.3-55.3c13.1-48.7,13.1-150.4,13.1-150.4S812.5,398.3,799.4,349.6L799.4,349.6z
	 M437.5,593.8V406.3L599.9,500L437.5,593.8L437.5,593.8z"/>
</svg>
