<?xml version="1.0" encoding="utf-8"?>
<!-- Generator: Adobe Illustrator 26.2.1, SVG Export Plug-In . SVG Version: 6.00 Build 0)  -->
<svg version="1.1" id="Layer_1" xmlns:serif="http://www.serif.com/"
	 xmlns="http://www.w3.org/2000/svg" xmlns:xlink="http://www.w3.org/1999/xlink" x="0px" y="0px" viewBox="0 0 1000 1000"
	 style="enable-background:new 0 0 1000 1000;" xml:space="preserve">
<style type="text/css">
	.st0{fill-rule:evenodd;clip-rule:evenodd;fill:#767676;}
</style>
<path class="st0" d="M500,0c276,0,500,224,500,500s-224,500-500,500S0,776,0,500S224,0,500,0z M500,187.5
	c-84.9,0-95.5,0.4-128.8,1.9c-33.3,1.5-56,6.8-75.9,14.5c-20.5,8-38,18.7-55.3,36s-28.1,34.8-36,55.3c-7.7,19.9-13,42.6-14.5,75.9
	c-1.5,33.3-1.9,44-1.9,128.8s0.4,95.5,1.9,128.8c1.5,33.3,6.8,56,14.5,75.9c8,20.5,18.7,38,36,55.4c17.4,17.4,34.8,28.1,55.3,36
	c19.9,7.7,42.6,13,75.9,14.5c33.3,1.5,44,1.9,128.8,1.9s95.5-0.4,128.8-1.9c33.3-1.5,56-6.8,75.9-14.5c20.5-8,38-18.7,55.4-36
	c17.4-17.4,28.1-34.8,36-55.4c7.7-19.9,13-42.6,14.5-75.9c1.5-33.3,1.9-44,1.9-128.8s-0.4-95.5-1.9-128.8
	c-1.5-33.3-6.8-56-14.5-75.9c-8-20.5-18.7-38-36-55.3c-17.4-17.4-34.8-28.1-55.4-36c-19.9-7.7-42.6-13-75.9-14.5
	C595.5,187.9,584.9,187.5,500,187.5z M500,243.8c83.4,0,93.3,0.3,126.3,1.8c30.5,1.4,47,6.5,58,10.8c14.6,5.7,25,12.4,35.9,23.4
	c10.9,10.9,17.7,21.3,23.4,35.9c4.3,11,9.4,27.6,10.8,58c1.5,33,1.8,42.8,1.8,126.3s-0.3,93.3-1.8,126.3c-1.4,30.5-6.5,47-10.8,58
	c-5.7,14.6-12.4,25-23.4,35.9c-10.9,10.9-21.3,17.7-35.9,23.4c-11,4.3-27.6,9.4-58,10.8c-32.9,1.5-42.8,1.8-126.3,1.8
	s-93.3-0.3-126.3-1.8c-30.5-1.4-47-6.5-58-10.8c-14.6-5.7-25-12.4-35.9-23.4c-10.9-10.9-17.7-21.3-23.4-35.9
	c-4.3-11-9.4-27.6-10.8-58c-1.5-33-1.8-42.8-1.8-126.3s0.3-93.3,1.8-126.3c1.4-30.5,6.5-47,10.8-58c5.7-14.6,12.4-25,23.4-35.9
	c10.9-10.9,21.3-17.7,35.9-23.4c11-4.3,27.6-9.4,58-10.8C406.7,244.1,416.6,243.8,500,243.8L500,243.8z M500,339.5
	c-88.6,0-160.5,71.8-160.5,160.5S411.4,660.5,500,660.5S660.5,588.6,660.5,500S588.6,339.5,500,339.5L500,339.5z M500,604.2
	c-57.5,0-104.2-46.6-104.2-104.2c0-57.5,46.6-104.2,104.2-104.2S604.2,442.5,604.2,500S557.5,604.2,500,604.2z M704.3,333.2
	c0,20.7-16.8,37.5-37.5,37.5c-20.7,0-37.5-16.8-37.5-37.5c0-20.7,16.8-37.5,37.5-37.5C687.5,295.7,704.3,312.5,704.3,333.2z"/>
</svg>
