<?xml version="1.0" encoding="utf-8"?>
<!-- Generator: Adobe Illustrator 26.2.1, SVG Export Plug-In . SVG Version: 6.00 Build 0)  -->
<svg version="1.1" id="Layer_1" xmlns:serif="http://www.serif.com/"
	 xmlns="http://www.w3.org/2000/svg" xmlns:xlink="http://www.w3.org/1999/xlink" x="0px" y="0px" viewBox="0 0 1000 1000"
	 style="enable-background:new 0 0 1000 1000;" xml:space="preserve">
<style type="text/css">
	.st0{fill-rule:evenodd;clip-rule:evenodd;fill:#767676;}
</style>
<path class="st0" d="M500,0c276,0,500,224,500,500s-224,500-500,500S0,776,0,500S224,0,500,0z M411.9,765.9
	c221.3,0,342.2-183.3,342.2-342.2c0-5.2,0-10.5-0.2-15.5c23.4-17,43.9-38.2,60.1-62.4c-21.5,9.5-44.7,16-69.1,19
	c24.9-15,43.9-38.4,52.9-66.6c-23.2,13.7-48.9,23.7-76.3,29.2c-22-23.4-53.1-37.9-87.8-37.9c-66.4,0-120.2,53.9-120.2,120.2
	c0,9.5,1,18.7,3.2,27.4c-100-5-188.6-52.9-247.9-125.7c-10.2,17.7-16.2,38.4-16.2,60.4c0,41.7,21.2,78.6,53.6,100
	c-19.7-0.5-38.2-6-54.4-15v1.5c0,58.4,41.4,106.8,96.5,118c-10,2.7-20.7,4.2-31.7,4.2c-7.7,0-15.2-0.7-22.7-2.2
	c15.2,47.9,59.6,82.6,112.2,83.6c-41.2,32.2-93,51.4-149.4,51.4c-9.7,0-19.2-0.5-28.7-1.7C280.7,746,344.1,765.9,411.9,765.9
	L411.9,765.9z"/>
</svg>
