<?xml version="1.0" encoding="utf-8"?>
<!-- Generator: Adobe Illustrator 26.2.1, SVG Export Plug-In . SVG Version: 6.00 Build 0)  -->
<svg version="1.1" id="Layer_1" xmlns:serif="http://www.serif.com/"
	 xmlns="http://www.w3.org/2000/svg" xmlns:xlink="http://www.w3.org/1999/xlink" x="0px" y="0px" viewBox="0 0 1000 1000"
	 style="enable-background:new 0 0 1000 1000;" xml:space="preserve">
<style type="text/css">
	.st0{fill-rule:evenodd;clip-rule:evenodd;fill:#767676;}
</style>
<path class="st0" d="M498.1,1000l0.4,0h-0.2L498.1,1000L498.1,1000z M501.6,1000h-0.2l0.4,0L501.6,1000z M496.6,1000l0.5,0h-0.3
	L496.6,1000z M503.2,1000H503l0.5,0L503.2,1000z M495.1,1000l0.3,0L495.1,1000L495.1,1000L495.1,1000z M504.8,1000l-0.3,0
	L504.8,1000L504.8,1000L504.8,1000z M506.5,1000l-0.1,0l0.4,0L506.5,1000L506.5,1000z M493.2,1000l0.4,0l-0.1,0L493.2,1000
	L493.2,1000z M508.1,999.9l-0.3,0l0.5,0L508.1,999.9L508.1,999.9z M491.7,999.9l0.5,0l-0.3,0L491.7,999.9L491.7,999.9z M509.7,999.9
	l-0.4,0l0.5,0L509.7,999.9z M490.2,999.9l0.5,0l-0.4,0L490.2,999.9L490.2,999.9z M488.3,999.9l0.4,0l-0.1,0L488.3,999.9L488.3,999.9
	z M511.3,999.9L511.3,999.9l0.4,0L511.3,999.9z M486.7,999.8l0.6,0l-0.2,0L486.7,999.8z M512.9,999.8l-0.2,0l0.6,0L512.9,999.8z
	 M514.5,999.8l-0.4,0l0.6,0L514.5,999.8L514.5,999.8z M485.3,999.8l0.6,0l-0.4,0L485.3,999.8L485.3,999.8z M483.9,999.7l0.4,0
	L483.9,999.7l-0.4,0L483.9,999.7z M516.1,999.7l-0.4,0L516.1,999.7l0.4,0L516.1,999.7z M517.7,999.7l-0.2,0l0.7,0L517.7,999.7z
	 M481.8,999.7l0.7,0l-0.2,0L481.8,999.7z M480.4,999.6l0.7,0l-0.4,0L480.4,999.6z M519.3,999.6l-0.4,0l0.7,0L519.3,999.6z
	 M478.9,999.6l0.7,0l-0.5,0L478.9,999.6L478.9,999.6z M520.9,999.6l-0.5,0l0.7,0L520.9,999.6L520.9,999.6z M476.9,999.5l0.7,0
	l-0.2,0L476.9,999.5z M522.5,999.5l-0.2,0l0.7,0L522.5,999.5L522.5,999.5z M475.5,999.4l0.8,0l-0.4,0L475.5,999.4z M524.1,999.4
	l-0.4,0l0.8,0L524.1,999.4z M474.1,999.3l0.8,0l-0.5,0L474.1,999.3z M525.7,999.3l-0.5,0l0.8,0L525.7,999.3z M527.3,999.3l-0.7,0
	L527.3,999.3l0.7,0L527.3,999.3L527.3,999.3z M472.8,999.3l0.6,0L472.8,999.3l-0.7,0L472.8,999.3L472.8,999.3z M528.9,999.2l-0.3,0
	l0.8,0L528.9,999.2z M470.6,999.1l0.8,0l-0.3,0L470.6,999.1z M469.2,999.1l0.8,0l-0.5,0L469.2,999.1L469.2,999.1z M530.5,999.1
	l-0.5,0l0.8,0L530.5,999.1L530.5,999.1z M467.9,999l0.7,0L467.9,999l-0.6,0L467.9,999L467.9,999z M532.1,999l-0.7,0L532.1,999l0.7,0
	L532.1,999L532.1,999z M533.7,998.9l-0.2,0l0.8-0.1L533.7,998.9L533.7,998.9z M465.8,998.8l0.8,0.1l-0.2,0L465.8,998.8z
	 M464.4,998.7l0.7,0.1l-0.4,0L464.4,998.7L464.4,998.7z M535.3,998.8l-0.4,0l0.7-0.1L535.3,998.8z M463,998.6l0.7,0l-0.5,0
	L463,998.6L463,998.6z M536.9,998.7l-0.5,0l0.7,0L536.9,998.7L536.9,998.7z M461.1,998.5l0.6,0l-0.1,0L461.1,998.5z M538.4,998.5
	l-0.1,0l0.6,0L538.4,998.5z M540,998.4l-0.3,0l0.6,0L540,998.4z M459.6,998.4l0.6,0l-0.3,0L459.6,998.4L459.6,998.4z M458.2,998.3
	l0.5,0l-0.4,0L458.2,998.3z M541.6,998.3l-0.4,0l0.5,0L541.6,998.3z M456.7,998.1l0.2,0l0,0L456.7,998.1L456.7,998.1z M543.2,998.2
	L543.2,998.2l0.1,0L543.2,998.2L543.2,998.2z M544.8,998l-0.1,0l0.4,0L544.8,998L544.8,998z M455,998l0.4,0l-0.1,0L455,998L455,998z
	 M453.5,997.9l0.3,0L453.5,997.9L453.5,997.9z M546.4,997.9l-0.2,0L546.4,997.9L546.4,997.9z M421.9,993.9C183,956.4,0,749.4,0,500
	C0,224,224,0,500,0s500,224,500,500c0,249.4-183,456.4-421.9,493.9V644.5h116.5L716.8,500H578.1v-93.8c0-39.5,19.4-78.1,81.5-78.1
	h63v-123c0,0-57.2-9.8-111.9-9.8c-114.2,0-188.9,69.2-188.9,194.5V500h-127v144.5h127V993.9z"/>
</svg>
